<svg width="24" height="24" viewBox="0 0 24 24" fill="none" xmlns="http://www.w3.org/2000/svg">
<path d="M4.81077 12.4885L4.71149 12.4766C4.69066 12.6498 4.7183 12.7994 4.78612 12.9281C4.85331 13.0557 4.95648 13.1563 5.07678 13.2385C5.31233 13.3994 5.63307 13.502 5.93079 13.5972L5.9352 13.5986L5.93614 13.5989L6.16548 13.6748C6.3954 13.7513 6.72141 13.8543 7.04894 13.9395C7.37416 14.0242 7.70927 14.0936 7.954 14.0991L7.954 14.0991H7.95624C8.39902 14.0991 8.87618 13.9299 9.36911 13.5858C10.3756 12.8908 11.1589 12.353 11.7667 11.9379C11.5166 12.1777 11.2916 12.3919 11.1346 12.5407C10.8707 12.7897 10.6828 12.9712 10.6404 13.0145L10.6404 13.0145L10.639 13.016C10.5854 13.073 10.5327 13.1262 10.4798 13.1795C10.4534 13.2061 10.427 13.2327 10.4005 13.2598C10.2295 13.4277 10.0549 13.5993 9.92929 13.7872C9.80158 13.9781 9.72012 14.1917 9.74116 14.4439L9.74119 14.4443C9.76232 14.6858 9.88012 14.887 10.0235 15.0493C10.1666 15.2112 10.3401 15.3398 10.483 15.4365L10.4833 15.4368C10.849 15.682 11.1518 15.8927 11.4476 16.0985C11.502 16.1364 11.5563 16.1741 11.6106 16.2119C11.6551 16.2428 11.6995 16.2738 11.7441 16.3049C12.0832 16.5413 12.4313 16.784 12.8694 17.0754C12.9898 17.1575 13.1038 17.2397 13.2147 17.3222L13.2157 17.3229L13.236 17.3376C13.6554 17.6415 14.1169 17.9759 14.698 17.9759C14.7429 17.9759 14.7876 17.9727 14.8307 17.9695C14.8341 17.9692 14.8375 17.969 14.8408 17.9687L14.8408 17.9688L14.8432 17.9685C15.0453 17.9491 15.2768 17.8627 15.4832 17.6337C15.6877 17.4068 15.8619 17.0461 15.9657 16.4876L15.9657 16.4874C16.308 14.6204 17.0137 10.3901 17.1803 8.59362C17.2019 8.38005 17.1732 8.1416 17.1594 8.04648L17.1595 8.04647L17.1591 8.04405L17.1586 8.04118C17.1441 7.95583 17.0974 7.68086 16.8532 7.47807L16.8529 7.4778C16.5792 7.25246 16.2176 7.25059 16.1555 7.25057L16.154 7.2506C15.9082 7.25432 15.6482 7.30571 15.0645 7.51865C14.4812 7.73148 13.5652 8.10932 12.0049 8.77257L12.0048 8.77259C10.9703 9.21289 8.87197 10.1346 5.77135 11.5166C5.12108 11.7833 4.75939 12.0727 4.71147 12.4768L4.81077 12.4885ZM4.81077 12.4885C4.85145 12.1455 5.15989 11.8753 5.81068 11.6085L5.9666 13.5037C5.35988 13.3096 4.7362 13.1087 4.81077 12.4885ZM15.1046 16.3199L15.1047 16.3197C15.4335 14.5212 16.1479 10.2468 16.3101 8.50555C16.3174 8.42599 16.3092 8.31681 16.3034 8.24078C16.3021 8.22286 16.3009 8.20677 16.3 8.19336C16.2979 8.18115 16.2961 8.17265 16.2946 8.16689C16.2939 8.16653 16.2931 8.16617 16.2923 8.16579C16.2827 8.16146 16.2706 8.15701 16.2572 8.15331C16.2282 8.14528 16.2041 8.1437 16.1917 8.14569L16.1778 8.14794L16.1777 8.14695C16.0181 8.15002 15.7551 8.21668 15.1753 8.43627C14.6 8.65415 13.7256 9.01715 12.3509 9.60105L12.3508 9.60109C11.3214 10.0372 9.22747 10.9584 6.12594 12.3408L6.11761 12.3445L6.11748 12.3441L6.10987 12.3467C5.88827 12.4359 5.75538 12.5091 5.67665 12.5615C5.71758 12.5801 5.7657 12.5995 5.81851 12.6192C5.93346 12.662 6.06486 12.7043 6.18332 12.7425C6.19141 12.7451 6.19944 12.7476 6.2074 12.7502L6.4446 12.8264L6.44571 12.8268C6.79622 12.9439 7.11639 13.0375 7.38179 13.1025C7.64927 13.1681 7.85491 13.203 7.97913 13.2062L7.98168 13.2063C8.21852 13.2184 8.5173 13.0996 8.87845 12.8466L8.87903 12.8462C11.0889 11.3219 12.2192 10.5531 12.8104 10.1622C13.3935 9.77675 13.4621 9.75097 13.5366 9.73378L13.5423 9.73247L13.5423 9.73264C13.548 9.73166 13.5555 9.73016 13.5643 9.72836C13.6032 9.7205 13.6702 9.70696 13.7455 9.70696C13.8628 9.70696 14.0156 9.73515 14.1483 9.85764C14.3696 10.0551 14.3654 10.3458 14.3346 10.4836L14.3343 10.4851C14.3053 10.6059 14.2426 10.7194 13.9059 11.0757C13.5661 11.4352 12.9328 12.0555 11.7366 13.1916L11.7362 13.192C11.4865 13.4266 11.3124 13.5942 11.2755 13.6318C11.1861 13.7267 11.0969 13.8144 11.0125 13.8972M15.1046 16.3199L10.9424 13.8259M15.1046 16.3199C15.0515 16.6133 14.9814 16.8072 14.9129 16.9267C14.8416 17.0509 14.7845 17.0747 14.7658 17.0766L14.7759 17.1761L14.7665 17.0765C14.6091 17.0914 14.4559 17.0491 14.2871 16.9621C14.1165 16.8741 13.9384 16.7449 13.7299 16.593M15.1046 16.3199L12.1078 15.4726M11.0125 13.8972C11.0125 13.8972 11.0125 13.8972 11.0124 13.8972L10.9424 13.8259M11.0125 13.8972C11.0125 13.8971 11.0126 13.8971 11.0126 13.8971L10.9424 13.8259M11.0125 13.8972C10.9153 13.9931 10.8102 14.0973 10.7305 14.1911C10.6907 14.2381 10.6597 14.2796 10.6399 14.3137C10.6232 14.3423 10.6196 14.3569 10.6187 14.3607M10.9424 13.8259C10.7492 14.0164 10.5085 14.2555 10.5187 14.3698M10.6187 14.3607C10.6186 14.3602 10.6185 14.3598 10.6184 14.3595L10.618 14.3579L10.618 14.3577L10.5187 14.3698M10.6187 14.3607C10.6193 14.3627 10.6204 14.3659 10.6223 14.3703C10.6271 14.3814 10.6375 14.4008 10.6595 14.4287C10.7039 14.485 10.7933 14.5727 10.9711 14.6922L10.9711 14.6922C11.409 14.9871 11.7585 15.2299 12.1076 15.4724L12.1078 15.4725M10.6187 14.3607C10.6187 14.3607 10.6187 14.3607 10.6187 14.3608C10.6184 14.3619 10.6184 14.362 10.6183 14.3609L10.5187 14.3698M10.5187 14.3698L12.1078 15.4725M12.1078 15.4725C12.1078 15.4725 12.1078 15.4725 12.1078 15.4726M12.1078 15.4725L12.1078 15.4726M12.1078 15.4726C12.1618 15.51 12.2158 15.5475 12.2699 15.5851C12.5968 15.8121 12.9329 16.0455 13.3538 16.3273L13.3539 16.3274C13.4843 16.4151 13.6109 16.5061 13.7299 16.593M13.7299 16.593L13.671 16.6737L13.7299 16.5929C13.7299 16.5929 13.7299 16.593 13.7299 16.593Z" fill="#B87DB8" stroke="#B87DB8" stroke-width="0.2"/>
<path d="M11.8515 0.8C5.80195 0.8 0.889844 5.82724 0.889844 12C0.889844 18.1728 5.80195 23.2 11.8515 23.2C17.9011 23.2 22.8133 18.1728 22.8133 12C22.8133 5.82724 17.9011 0.8 11.8515 0.8ZM11.8515 22.1071C6.40731 22.1071 1.96775 17.5756 1.96775 12C1.96775 6.42442 6.40731 1.89291 11.8515 1.89291C17.2958 1.89291 21.7354 6.42442 21.7354 12C21.7354 17.5756 17.2958 22.1071 11.8515 22.1071Z" fill="#B87DB8" stroke="#B87DB8" stroke-width="0.4"/>
</svg>
