<svg width="22" height="22" viewBox="0 0 22 22" fill="none" xmlns="http://www.w3.org/2000/svg">
<g clip-path="url(#clip0_78_270)">
<path d="M6.73542 11.5998C7.07274 12.4544 7.58184 13.314 8.34952 13.9604C9.11901 14.6083 10.1431 15.0375 11.5 15.0375C11.6501 15.0375 11.7719 14.9158 11.7719 14.7656V12.4742C12.9613 12.6042 13.8989 13.5774 13.9734 14.7825L13.9734 14.7826C13.9823 14.9258 14.1011 15.0375 14.2447 15.0375H15.625C15.7751 15.0375 15.8969 14.9158 15.8969 14.7656C15.8969 13.4264 15.2458 12.2379 14.2439 11.5C15.2458 10.7621 15.8969 9.57361 15.8969 8.23438C15.8969 8.08427 15.7751 7.9625 15.625 7.9625H14.2447C14.1011 7.9625 13.9823 8.07426 13.9734 8.21747L13.9734 8.21755C13.8989 9.42266 12.9613 10.3958 11.7719 10.5258V8.23438C11.7719 8.08427 11.6501 7.9625 11.5 7.9625H10.125C9.97491 7.9625 9.85314 8.08427 9.85314 8.23438V12.3335C9.57507 12.2136 9.15631 11.959 8.78845 11.4336C8.35461 10.8137 7.99063 9.81988 7.99063 8.23438C7.99063 8.08427 7.86886 7.9625 7.71875 7.9625H6.34375C6.19365 7.9625 6.07187 8.08427 6.07187 8.23438H6.17188L6.07187 8.2344L6.07188 8.2345L6.07188 8.2348L6.07188 8.23587L6.0719 8.2398L6.07204 8.25472C6.0722 8.26775 6.07252 8.2869 6.07317 8.31175C6.07446 8.36144 6.07705 8.43396 6.08222 8.52605C6.09256 8.7102 6.11323 8.97277 6.1546 9.28766C6.23728 9.91691 6.40294 10.7577 6.73542 11.5998ZM6.73542 11.5998L6.82844 11.5631L6.73543 11.5998C6.73543 11.5998 6.73542 11.5998 6.73542 11.5998ZM7.24114 11.4002C6.77323 10.2148 6.65526 9.02737 6.62558 8.50625M7.24114 11.4002L7.14813 11.4369L7.24114 11.4002ZM7.24114 11.4002C7.83196 12.8968 8.97746 14.3771 11.2281 14.4872V12.1875C11.2281 12.0374 11.3499 11.9156 11.5 11.9156C13.0172 11.9156 14.2745 13.036 14.4894 14.4938H15.3428C15.2524 13.3167 14.58 12.3009 13.6129 11.7347L6.62558 8.50625M6.62558 8.50625H7.45034C7.50173 10.4865 8.11377 11.592 8.72966 12.2079C9.06442 12.5426 9.40085 12.7334 9.65495 12.8406C9.78195 12.8942 9.8884 12.9269 9.96388 12.9463C10.0016 12.9561 10.0317 12.9625 10.0527 12.9665C10.0632 12.9685 10.0715 12.9699 10.0773 12.9709L10.0843 12.9719L10.0863 12.9723L10.0866 12.9723C10.0867 12.9723 10.0868 12.9723 10.0868 12.9723L10.087 12.9723L10.0873 12.9724L10.0874 12.9724L6.62558 8.50625ZM13.6632 11.3517L13.6127 11.2654C13.6128 11.2654 13.6128 11.2653 13.6129 11.2653C14.58 10.6991 15.2524 9.68336 15.3428 8.50625H14.4894C14.2745 9.96398 13.0172 11.0844 11.5 11.0844C11.3499 11.0844 11.2281 10.9626 11.2281 10.8125V8.50625L13.6127 11.7346L13.6632 11.6483C13.6105 11.6176 13.5782 11.561 13.5782 11.5C13.5782 11.439 13.6105 11.3824 13.6632 11.3517ZM13.6632 11.3517C14.6598 10.7683 15.3524 9.7205 15.4431 8.50625L13.6632 11.3517Z" fill="#B87DB8" stroke="#B87DB8" stroke-width="0.2"/>
</g>
<path d="M1.99632 16.4821L2.04913 16.2851L1.94902 16.1073C1.05956 14.528 0.591282 12.7367 0.591282 10.9018C0.591282 5.15683 5.16281 0.5 10.7569 0.5C13.4697 0.5 16.022 1.579 17.9419 3.54611C19.8713 5.52301 21.0234 8.13565 21.0234 10.9067C21.0234 16.6453 16.3524 21.3085 10.7569 21.3085H10.7521C9.05017 21.3085 7.38051 20.8736 5.89847 20.046L5.7212 19.9471L5.52511 19.9997L0.70723 21.2925L1.99632 16.4821ZM5.98037 19.1366L5.98145 19.1373L19.7218 10.9067L20.2218 10.9077C20.2218 10.9074 20.2218 10.907 20.2218 10.9067C20.2266 8.3415 19.1374 5.94596 17.3845 4.14907C15.6195 2.33988 13.2665 1.34152 10.7617 1.34152C5.58466 1.34152 1.39291 5.64165 1.39291 10.9018C1.39291 12.7065 1.88376 14.4622 2.82182 15.986C2.82186 15.9861 2.8219 15.9862 2.82194 15.9862L2.92054 16.1466L2.08246 19.283L1.85906 20.119L2.69494 19.895L5.84139 19.0518L5.98037 19.1366Z" stroke="#B87DB8"/>
<defs>
<clipPath id="clip0_78_270">
<rect width="11" height="11" fill="white" transform="translate(5.48438 6)"/>
</clipPath>
</defs>
</svg>
