<svg width="23" height="22" viewBox="0 0 23 22" fill="none" xmlns="http://www.w3.org/2000/svg">
<path d="M2.60961 16.4821L2.66241 16.2851L2.5623 16.1073C1.67284 14.528 1.20456 12.7367 1.20456 10.9018C1.20456 5.15683 5.77609 0.5 11.3702 0.5C14.083 0.5 16.6353 1.579 18.5552 3.54611C20.4846 5.52301 21.6367 8.13565 21.6367 10.9067C21.6367 16.6453 16.9657 21.3085 11.3702 21.3085H11.3654C9.66345 21.3085 7.99379 20.8736 6.51175 20.046L6.33448 19.9471L6.13839 19.9997L1.32051 21.2925L2.60961 16.4821ZM6.59366 19.1366L6.59473 19.1373L20.3351 10.9067L20.8351 10.9077C20.8351 10.9074 20.8351 10.907 20.8351 10.9067C20.8399 8.3415 19.7507 5.94596 17.9977 4.14907C16.2328 2.33988 13.8798 1.34152 11.375 1.34152C6.19794 1.34152 2.00619 5.64165 2.00619 10.9018C2.00619 12.7065 2.49704 14.4622 3.4351 15.986C3.43514 15.9861 3.43518 15.9862 3.43523 15.9862L3.53383 16.1466L2.69574 19.283L2.47234 20.119L3.30822 19.895L6.45467 19.0518L6.59366 19.1366Z" fill="#B87DB8" stroke="#B87DB8"/>
<path d="M14.2956 12.7601L14.2953 12.7598C14.1228 12.4985 13.8486 12.2891 13.5599 12.2007C13.2498 12.1057 12.9425 12.1275 12.6449 12.2543L11.7787 12.6233C11.7653 12.6121 11.7515 12.6015 11.7382 12.592L11.7333 12.5847L11.7281 12.5768L11.7215 12.57C11.6407 12.4864 11.5475 12.3979 11.4297 12.3113C10.893 11.7857 10.4338 11.1409 10.0083 10.3319C9.83061 9.98215 9.71533 9.68567 9.64261 9.3853C9.81162 9.32664 9.94848 9.26159 10.0536 9.21014L10.4589 9.03748C10.788 8.9132 11.0097 8.71207 11.0888 8.44234C11.1703 8.16441 11.0937 7.87273 10.9036 7.57135L10.9036 7.57134L10.9025 7.56957L10.1417 6.41735L10.1411 6.41646C10.0696 6.30817 9.99661 6.19755 9.91272 6.08344C9.73761 5.83251 9.48288 5.63976 9.18492 5.5485C8.85587 5.44771 8.55114 5.45901 8.23807 5.59237L7.27505 6.0026C6.87544 6.15682 6.58565 6.42122 6.42266 6.80775L6.42206 6.80749L6.41885 6.81845L6.41689 6.82514C6.25506 7.2967 6.21491 7.76434 6.29363 8.38004L6.29371 8.3806C6.42242 9.34403 6.76072 10.3091 7.35019 11.4342L7.35011 11.4343L7.35229 11.438C8.14925 12.8131 9.15391 13.9989 10.3715 14.9768L10.3711 14.9773L10.3805 14.9832L10.4061 14.9995C10.766 15.2747 11.4558 15.7993 12.3048 16.1085L12.3048 16.1086L12.3097 16.1102L12.4265 16.1459C13.0082 16.3241 13.503 16.3045 13.973 16.0796L13.973 16.0796L13.976 16.0781C14.0804 16.0237 14.1856 15.9755 14.2883 15.9285C14.3428 15.9035 14.3967 15.8788 14.4493 15.8537C14.5676 15.8187 14.6542 15.7737 14.7336 15.7324L14.8358 15.6888L14.8622 15.6776L14.8623 15.6777L14.8663 15.6757C15.1664 15.5314 15.3692 15.3201 15.4418 15.0611C15.5145 14.8016 15.4505 14.5157 15.2615 14.236C15.2613 14.2357 15.2612 14.2355 15.261 14.2353L14.2956 12.7601ZM14.3468 15.1268L14.3313 15.1334L14.3189 15.1448L14.312 15.151C14.3107 15.1518 14.3093 15.1525 14.3079 15.1533C14.2442 15.1877 14.2015 15.2108 14.1533 15.2254L14.1532 15.2248L14.1434 15.229L14.1037 15.2459L14.1028 15.2463C13.945 15.3135 13.7579 15.3932 13.5651 15.491C13.2832 15.625 13.0051 15.6399 12.6103 15.5189L12.5282 15.4938C11.8162 15.2279 11.2222 14.7816 10.8637 14.5074L10.8465 14.4933L10.8465 14.4933L10.8454 14.4924C9.7044 13.5772 8.75896 12.4632 8.0223 11.1826C7.46011 10.1273 7.15334 9.23117 7.03426 8.35794C6.96687 7.81752 6.99656 7.45676 7.12739 7.08346C7.224 6.86244 7.37976 6.71424 7.61244 6.62907L7.61249 6.6292L7.61718 6.6272L8.59499 6.21067C8.73186 6.15237 8.84821 6.148 8.9853 6.18999C9.09662 6.22408 9.19118 6.2993 9.27225 6.41004L9.27894 6.42016L9.2788 6.42025L9.28224 6.42487C9.35489 6.52243 9.42536 6.62912 9.49775 6.73876L10.2585 7.89099C10.3906 8.09116 10.3749 8.19451 10.3644 8.23015C10.3576 8.25328 10.3468 8.27968 10.3153 8.31016C10.2819 8.34257 10.2209 8.3837 10.1063 8.42527L10.1062 8.42513L10.1013 8.42724L9.67844 8.60736L9.6784 8.60728L9.67453 8.60912C9.52983 8.67837 9.36229 8.74973 9.15057 8.81715L9.15044 8.81674L9.14188 8.82038L9.11545 8.83164L9.10622 8.83557L9.09797 8.8413L9.07121 8.85986C8.99732 8.9054 8.94052 8.96132 8.90633 9.03621C8.87288 9.10947 8.86592 9.1904 8.87183 9.27704L8.87201 9.31253L8.87221 9.35129L8.87226 9.36199L8.87456 9.37245C8.96074 9.76586 9.09831 10.1441 9.32091 10.5853L9.3209 10.5853L9.32166 10.5867C9.78538 11.47 10.3006 12.1865 10.9028 12.7737L10.9284 12.8001L10.9279 12.8006L10.9367 12.8078C11.0083 12.8669 11.0776 12.9242 11.1374 12.9782C11.1695 13.0224 11.2116 13.0569 11.2446 13.0786C11.2532 13.0857 11.2613 13.092 11.2683 13.0975L11.2697 13.0986C11.2776 13.1048 11.2837 13.1096 11.2892 13.1141C11.2999 13.123 11.3025 13.1263 11.3025 13.1263L11.3067 13.1328L11.3121 13.1386L11.3734 13.2058L11.392 13.2262L11.4183 13.2343L11.4265 13.2368L11.4442 13.2481C11.514 13.2926 11.5666 13.3087 11.6015 13.3194C11.7324 13.3595 11.8623 13.3502 12.0002 13.2915L12.9912 12.8693C13.1307 12.8099 13.2365 12.8042 13.3603 12.8422C13.4903 12.882 13.5983 12.988 13.654 13.0723L14.6309 14.552C14.7196 14.6864 14.7369 14.7842 14.7171 14.855C14.6973 14.9255 14.6316 15.0017 14.478 15.0709L14.3468 15.1268Z" fill="#B87DB8" stroke="#B87DB8" stroke-width="0.2"/>
</svg>
